# xmcd
#
# Track frame offsets:
#	150
#	15475
#	34017
#	47076
#	62209
#	76467
#	90605
#	106116
#	125471
#	143317
#	158913
#	174019
#	189406
#	204474
#	225180
#	239753
#
# Disc length: 3490 seconds
# Revision: 0
# Processed by: cddbd v1.5.2PL0 Copyright (c) Steve Scherf et al.
# Submitted via: dBpowerAMP V12.0
#
DISCID=bd0da010
DTITLE=B.B. and The Blues Shacks - Come Along
DYEAR=2012
DGENRE=Blues
TTITLE0=True Love In Vain
TTITLE1=Love Like Cash
TTITLE2=Come Along With Me
TTITLE3=If I Should Ever Lose Your Love
TTITLE4=Get My Stuff Together
TTITLE5=Will You Be There
TTITLE6=Fool Me
TTITLE7=Don't Take Your Time
TTITLE8=The Door
TTITLE9=Anything You Do
TTITLE10=Doesn't Matter Anymore
TTITLE11=Wait In Line
TTITLE12=Just Don't Get It 
TTITLE13=Whatever You Do
TTITLE14=You Can Always Depend On Me
TTITLE15=Raise Your Voice
EXTD=
EXTT0=
EXTT1=
EXTT2=
EXTT3=
EXTT4=
EXTT5=
EXTT6=
EXTT7=
EXTT8=
EXTT9=
EXTT10=
EXTT11=
EXTT12=
EXTT13=
EXTT14=
EXTT15=
PLAYORDER=
